<svg width="96" height="96" viewBox="0 0 24 20" fill="none" xmlns="http://www.w3.org/2000/svg" class="transition-all duration-200" id="preview-icon" type="shapes" style="width: 96px; height: 96px; color: currentcolor;"><path d="M22.66 19.3292C22.66 19.3292 22.4908 19.3292 22.3268 19.412C22.1748 19.4878 21.9935 19.6517 21.9935 19.9948C21.9935 19.9983 21.9918 20 21.9883 20C21.9849 20 21.9832 19.9983 21.9832 19.9948C21.9832 19.6499 21.8018 19.4878 21.6516 19.412C21.4859 19.3292 21.3201 19.3292 21.3184 19.3292C21.3184 19.3292 21.3149 19.3275 21.3149 19.324C21.3149 19.3206 21.3166 19.3188 21.3201 19.3188C21.3218 19.3188 21.4893 19.3188 21.6534 19.2361C21.8053 19.1602 21.9849 18.9964 21.9849 18.6532C21.9849 18.6498 21.9866 18.648 21.9901 18.648C21.9935 18.648 21.9953 18.6498 21.9953 18.6532C21.9953 18.9981 22.1766 19.1602 22.3285 19.2361C22.4926 19.3188 22.66 19.3188 22.6618 19.3188C22.6618 19.3188 22.6652 19.3206 22.6652 19.324C22.6652 19.3275 22.6635 19.3292 22.66 19.3292ZM22.9467 16.7943C22.9467 16.7943 22.7049 16.7943 22.4701 16.9133C22.2543 17.0219 21.9953 17.2547 21.9953 17.7462C21.9953 17.7496 21.9935 17.7531 21.9883 17.7531C21.9832 17.7531 21.9814 17.7496 21.9814 17.7462C21.9814 17.2547 21.7242 17.0219 21.5066 16.9133C21.2717 16.796 21.0335 16.7943 21.03 16.7943C21.03 16.7943 21.0248 16.7908 21.0248 16.7874C21.0248 16.7839 21.0265 16.7805 21.0317 16.7805C21.0335 16.7805 21.2735 16.7788 21.5083 16.6615C21.7242 16.5529 21.9832 16.3201 21.9832 15.8286C21.9832 15.8251 21.9866 15.8217 21.9901 15.8217C21.9935 15.8217 21.997 15.8251 21.997 15.8286C21.997 16.3201 22.256 16.5546 22.4718 16.6632C22.7067 16.7805 22.945 16.7822 22.9484 16.7822H22.9501C22.9501 16.7822 22.9553 16.7857 22.9553 16.7891C22.9553 16.7926 22.9519 16.796 22.9484 16.796L22.9467 16.7943ZM23.1867 13.7765C23.1867 13.7765 22.8845 13.7782 22.591 13.9265C22.3199 14.0628 21.997 14.3525 21.997 14.9681C21.997 14.9733 21.9935 14.9767 21.9883 14.9767C21.9832 14.9767 21.9797 14.9733 21.9797 14.9681C21.9797 14.3525 21.6568 14.0628 21.3857 13.9265C21.0922 13.78 20.7934 13.7765 20.7917 13.7765C20.7917 13.7765 20.7848 13.7731 20.7848 13.7679C20.7848 13.7627 20.7883 13.7593 20.7934 13.7593C20.7969 13.7593 21.0956 13.7575 21.3892 13.6092C21.6603 13.473 21.9832 13.1816 21.9832 12.5677C21.9832 12.5625 21.9866 12.5591 21.9918 12.5591C21.997 12.5591 22.0004 12.5625 22.0004 12.5677C22.0004 13.1833 22.3233 13.473 22.5944 13.6092C22.8897 13.7558 23.1867 13.7593 23.1902 13.7593C23.1902 13.7593 23.1971 13.7644 23.1971 13.7679C23.1971 13.7731 23.1936 13.7765 23.1884 13.7765H23.1867ZM23.387 10.1776C23.387 10.1776 23.0347 10.1793 22.6911 10.3518C22.3751 10.5104 21.9987 10.8501 21.9987 11.5675C21.9987 11.5727 21.9935 11.5779 21.9901 11.5779C21.9849 11.5779 21.9797 11.5727 21.9797 11.5675C21.9797 10.8501 21.6033 10.5104 21.2873 10.3518C20.9437 10.1793 20.5966 10.1776 20.5931 10.1776C20.5931 10.1776 20.5862 10.1724 20.5862 10.169C20.5862 10.1655 20.5914 10.1604 20.5949 10.1604C20.5983 10.1604 20.9471 10.1587 21.2907 9.98621C21.6067 9.82756 21.9832 9.48784 21.9832 8.77048C21.9832 8.7653 21.9883 8.76013 21.9935 8.76013C21.9987 8.76013 22.0022 8.7653 22.0022 8.77048C22.0022 9.48784 22.3803 9.82756 22.6946 9.98621C23.0382 10.1587 23.3853 10.1604 23.3887 10.1604H23.3905C23.3905 10.1604 23.3974 10.1655 23.3974 10.169C23.3974 10.1742 23.3922 10.1793 23.3887 10.1793L23.387 10.1776ZM23.5856 6.40972C23.5856 6.40972 23.1833 6.41145 22.7913 6.60976C22.4304 6.79082 21.9987 7.17883 21.9987 7.99793C21.9987 8.00483 21.9935 8.01 21.9883 8.01C21.9832 8.01 21.9763 8.00483 21.9763 7.99793C21.9763 7.1771 21.5463 6.79082 21.1837 6.60976C20.7917 6.41317 20.3946 6.41145 20.3894 6.41145H20.3877C20.3877 6.41145 20.379 6.40628 20.379 6.39938C20.379 6.39248 20.3842 6.38903 20.3894 6.38903C20.3946 6.38903 20.7917 6.38731 21.1837 6.189C21.5446 6.00793 21.9745 5.61993 21.9745 4.80083C21.9745 4.79565 21.9797 4.79048 21.9866 4.79048C21.9935 4.79048 21.997 4.79565 21.997 4.80083C21.997 5.62166 22.4269 6.00966 22.7896 6.19072C23.1815 6.38731 23.5787 6.38903 23.5821 6.38903H23.5838C23.5838 6.38903 23.5925 6.3942 23.5925 6.39938C23.5925 6.40628 23.5873 6.41145 23.5804 6.41145L23.5856 6.40972ZM23.9845 2.02621C23.9845 2.02621 23.482 2.02966 22.9916 2.27453C22.5409 2.50043 22.0022 2.98499 22.0022 4.01103C22.0022 4.01793 21.9952 4.02483 21.9883 4.02483C21.9814 4.02483 21.9745 4.01793 21.9745 4.01103C21.9745 2.98499 21.4358 2.50043 20.9851 2.27453C20.4947 2.02794 19.9991 2.02621 19.994 2.02621C19.9888 2.02621 19.4915 2.02966 19.0011 2.27453C18.5504 2.50043 18.0117 2.98499 18.0117 4.01103C18.0117 4.01793 18.0047 4.02483 17.9978 4.02483C17.9909 4.02483 17.984 4.01793 17.984 4.01103C17.984 2.98499 17.4453 2.50043 16.9946 2.27453C16.5508 2.05208 16.1019 2.02794 16.0173 2.02621C15.9344 2.02794 15.4837 2.05208 15.0382 2.27453C14.5875 2.50043 14.0488 2.98499 14.0488 4.01103C14.0488 4.01793 14.0419 4.02483 14.035 4.02483C14.0281 4.02483 14.0211 4.01793 14.0211 4.01103C14.0211 2.98499 13.4824 2.50043 13.0317 2.27453C12.5413 2.02794 12.0458 2.02621 12.0406 2.02621H12.0388C12.0319 2.02621 12.0285 2.01931 12.0285 2.01241C12.0285 2.00552 12.0337 1.99862 12.0423 1.99862C12.0475 1.99862 12.5448 1.99517 13.0352 1.7503C13.4859 1.5244 14.0246 1.03983 14.0246 0.0137932C14.0246 0.00689543 14.0315 0 14.0384 0C14.0453 0 14.0522 0.00689543 14.0522 0.0137932C14.0522 1.03983 14.591 1.5244 15.0417 1.7503C15.4854 1.97275 15.9344 1.9969 16.019 1.99862C16.1019 1.9969 16.5526 1.97275 16.9981 1.7503C17.4487 1.5244 17.9875 1.03983 17.9875 0.0137932C17.9875 0.00689543 17.9944 0 18.0013 0C18.0082 0 18.0151 0.00689543 18.0151 0.0137932C18.0151 1.03983 18.5539 1.5244 19.0045 1.7503C19.4949 1.9969 19.9905 1.99862 19.9957 1.99862C20.0009 1.99862 20.4982 1.99517 20.9886 1.7503C21.4392 1.5244 21.978 1.03983 21.978 0.0137932C21.978 0.00689543 21.9849 0 21.9918 0C21.9987 0 22.0056 0.00689543 22.0056 0.0137932C22.0056 1.03983 22.5444 1.5244 22.995 1.7503C23.4854 1.9969 23.981 1.99862 23.9862 1.99862H23.9879C23.9879 1.99862 24 2.00552 24 2.01241C24 2.01931 23.9931 2.02621 23.9862 2.02621H23.9845ZM18.6695 19.3292C18.6695 19.3292 18.5003 19.3292 18.3363 19.412C18.1843 19.4878 18.0047 19.6517 18.0047 19.9948C18.0047 19.9983 18.003 20 17.9996 20C17.9961 20 17.9944 19.9983 17.9944 19.9948C17.9944 19.6499 17.8131 19.4878 17.6611 19.412C17.4971 19.3292 17.3296 19.3292 17.3279 19.3292C17.3279 19.3292 17.3244 19.3275 17.3244 19.324C17.3244 19.3206 17.3261 19.3188 17.3296 19.3188C17.3313 19.3188 17.4988 19.3188 17.6628 19.2361C17.8148 19.1602 17.9944 18.9964 17.9944 18.6532C17.9944 18.6498 17.9961 18.648 17.9996 18.648C18.003 18.648 18.0047 18.6498 18.0047 18.6532C18.0047 18.9981 18.186 19.1602 18.338 19.2361C18.502 19.3188 18.6695 19.3188 18.6713 19.3188C18.6713 19.3188 18.6747 19.3206 18.6747 19.324C18.6747 19.3275 18.673 19.3292 18.6695 19.3292ZM14.7067 19.3292C14.7067 19.3292 14.5374 19.3292 14.3734 19.412C14.2215 19.4878 14.0419 19.6517 14.0419 19.9948C14.0419 19.9983 14.0401 20 14.0367 20C14.0332 20 14.0315 19.9983 14.0315 19.9948C14.0315 19.6499 13.8502 19.4878 13.6982 19.412C13.5342 19.3292 13.3667 19.3292 13.365 19.3292C13.365 19.3292 13.3615 19.3275 13.3615 19.324C13.3615 19.3206 13.3633 19.3188 13.3667 19.3188C13.3684 19.3188 13.5359 19.3188 13.7 19.2361C13.8519 19.1602 14.0315 18.9964 14.0315 18.6532C14.0315 18.6498 14.0332 18.648 14.0367 18.648C14.0401 18.648 14.0419 18.6498 14.0419 18.6532C14.0419 18.9981 14.2232 19.1602 14.3751 19.2361C14.5392 19.3188 14.7067 19.3188 14.7084 19.3188C14.7084 19.3188 14.7118 19.3206 14.7118 19.324C14.7118 19.3275 14.7101 19.3292 14.7067 19.3292ZM10.6868 19.3292C10.6868 19.3292 10.5193 19.3292 10.3535 19.412C10.2016 19.4878 10.022 19.6517 10.022 19.9948C10.022 19.9983 10.0203 20 10.0168 20C10.0151 20 10.0117 19.9983 10.0117 19.9948C10.0117 19.6499 9.83035 19.4878 9.67839 19.412C9.51435 19.3292 9.34686 19.3292 9.34513 19.3292C9.34513 19.3292 9.34168 19.3275 9.34168 19.324C9.34168 19.3206 9.34341 19.3188 9.34686 19.3188C9.34686 19.3188 9.51435 19.3188 9.68012 19.2361C9.83207 19.1602 10.0117 18.9964 10.0117 18.6532C10.0117 18.6498 10.0134 18.648 10.0168 18.648C10.0203 18.648 10.022 18.6498 10.022 18.6532C10.022 18.9981 10.2033 19.1602 10.3553 19.2361C10.5193 19.3188 10.6868 19.3188 10.6885 19.3188C10.6885 19.3188 10.692 19.3206 10.692 19.324C10.692 19.3275 10.6903 19.3292 10.6868 19.3292ZM6.6963 19.3292C6.6963 19.3292 6.52881 19.3292 6.36304 19.412C6.21109 19.4878 6.03151 19.6517 6.03151 19.9948C6.03151 19.9983 6.02978 20 6.02633 20C6.02287 20 6.02115 19.9983 6.02115 19.9948C6.02115 19.6499 5.83985 19.4878 5.68789 19.412C5.52385 19.3292 5.35636 19.3292 5.35463 19.3292C5.35463 19.3292 5.35117 19.3275 5.35117 19.324C5.35117 19.3206 5.3529 19.3188 5.35635 19.3188C5.35635 19.3188 5.52384 19.3188 5.68961 19.2361C5.84156 19.1602 6.02115 18.9964 6.02115 18.6532C6.02115 18.6498 6.02287 18.648 6.02633 18.648C6.02978 18.648 6.03151 18.6498 6.03151 18.6532C6.03151 18.9981 6.21282 19.1602 6.36477 19.2361C6.52881 19.3188 6.69631 19.3188 6.69803 19.3188C6.69803 19.3188 6.70149 19.3206 6.70149 19.324C6.70149 19.3275 6.69976 19.3292 6.6963 19.3292ZM2.67645 19.3292C2.67645 19.3292 2.50723 19.3292 2.34319 19.412C2.19124 19.4878 2.01165 19.6517 2.01165 19.9948C2.01165 19.9983 2.00993 20 2.00647 20C2.00302 20 2.00129 19.9983 2.00129 19.9948C2.00129 19.6499 1.81998 19.4878 1.66803 19.412C1.50399 19.3292 1.3365 19.3292 1.33477 19.3292C1.33477 19.3292 1.33131 19.3275 1.33131 19.324C1.33131 19.3206 1.33304 19.3188 1.3365 19.3188C1.33822 19.3188 1.50572 19.3188 1.66976 19.2361C1.82171 19.1602 2.00302 18.9964 2.00302 18.6532C2.00302 18.6498 2.00475 18.648 2.0082 18.648C2.01166 18.648 2.01338 18.6498 2.01338 18.6532C2.01338 18.9981 2.19468 19.1602 2.34491 19.2361C2.51068 19.3188 2.67645 19.3188 2.67818 19.3188C2.67818 19.3188 2.68163 19.3206 2.68163 19.324C2.68163 19.3275 2.67991 19.3292 2.67645 19.3292ZM18.9562 16.7943C18.9562 16.7943 18.7144 16.7943 18.4796 16.9133C18.2638 17.0219 18.0047 17.2547 18.0047 17.7462C18.0047 17.7496 18.003 17.7531 17.9978 17.7531C17.9927 17.7531 17.9909 17.7496 17.9909 17.7462C17.9909 17.2547 17.7337 17.0219 17.5161 16.9133C17.2812 16.796 17.043 16.7943 17.0395 16.7943C17.0395 16.7943 17.0343 16.7908 17.0343 16.7874C17.0343 16.7839 17.036 16.7805 17.0412 16.7805C17.043 16.7805 17.283 16.7788 17.5178 16.6615C17.7336 16.5529 17.9927 16.3201 17.9927 15.8286C17.9927 15.8251 17.9961 15.8217 17.9996 15.8217C18.003 15.8217 18.0065 15.8251 18.0065 15.8286C18.0065 16.3201 18.2655 16.5546 18.4813 16.6632C18.7162 16.7805 18.9545 16.7822 18.9579 16.7822C18.9579 16.7822 18.9631 16.7857 18.9631 16.7891C18.9631 16.7926 18.9596 16.796 18.9562 16.796V16.7943ZM19.1962 13.7765C19.1962 13.7765 18.894 13.7782 18.6005 13.9265C18.3294 14.0628 18.0065 14.3525 18.0065 14.9681C18.0065 14.9733 18.003 14.9767 17.9978 14.9767C17.9927 14.9767 17.9892 14.9733 17.9892 14.9681C17.9892 14.3525 17.6663 14.0628 17.3952 13.9265C17.1017 13.78 16.8029 13.7765 16.8012 13.7765C16.8012 13.7765 16.7943 13.7731 16.7943 13.7679C16.7943 13.7627 16.7978 13.7593 16.8029 13.7593C16.8064 13.7593 17.1051 13.7575 17.3987 13.6092C17.6698 13.473 17.9927 13.1816 17.9927 12.5677C17.9927 12.5625 17.9961 12.5591 18.0013 12.5591C18.0065 12.5591 18.0099 12.5625 18.0099 12.5677C18.0099 13.1833 18.3328 13.473 18.6039 13.6092C18.8992 13.7558 19.1962 13.7593 19.1997 13.7593C19.1997 13.7593 19.2066 13.7644 19.2066 13.7679C19.2066 13.7731 19.2031 13.7765 19.1979 13.7765H19.1962ZM19.3948 10.1776C19.3948 10.1776 19.0442 10.1793 18.7006 10.3518C18.3846 10.5104 18.0082 10.8501 18.0082 11.5675C18.0082 11.5727 18.003 11.5779 17.9996 11.5779C17.9944 11.5779 17.9892 11.5727 17.9892 11.5675C17.9892 10.8501 17.6128 10.5104 17.2968 10.3518C16.9532 10.1793 16.6061 10.1776 16.6026 10.1776C16.6026 10.1776 16.5957 10.1724 16.5957 10.169C16.5957 10.1655 16.6009 10.1604 16.6044 10.1604C16.6078 10.1604 16.9566 10.1587 17.2985 9.98621C17.6145 9.82756 17.9909 9.48784 17.9909 8.77048C17.9909 8.7653 17.9961 8.76013 18.0013 8.76013C18.0065 8.76013 18.0099 8.7653 18.0099 8.77048C18.0099 9.48784 18.3864 9.82756 18.7024 9.98621C19.046 10.1587 19.393 10.1604 19.3965 10.1604H19.3982C19.3982 10.1604 19.4051 10.1655 19.4051 10.169C19.4051 10.1742 19.4 10.1793 19.3948 10.1793V10.1776ZM19.5951 6.40972C19.5951 6.40972 19.1927 6.41145 18.8008 6.60976C18.4399 6.79082 18.0082 7.17883 18.0082 7.99793C18.0082 8.00483 18.003 8.01 17.9978 8.01C17.9927 8.01 17.9858 8.00483 17.9858 7.99793C17.9858 7.1771 17.5558 6.79082 17.1932 6.60976C16.8012 6.41317 16.4041 6.41145 16.3989 6.41145H16.3971C16.3971 6.41145 16.3885 6.40628 16.3885 6.39938C16.3885 6.39248 16.3937 6.38903 16.3989 6.38903C16.4041 6.38903 16.8012 6.38731 17.1932 6.189C17.5541 6.00793 17.984 5.61993 17.984 4.80083C17.984 4.79565 17.9892 4.79048 17.9961 4.79048C18.003 4.79048 18.0065 4.79565 18.0065 4.80083C18.0065 5.62166 18.4364 6.00966 18.799 6.19072C19.191 6.38731 19.5882 6.38903 19.5916 6.38903H19.5933C19.5933 6.38903 19.602 6.3942 19.602 6.39938C19.602 6.40628 19.5968 6.41145 19.5899 6.41145L19.5951 6.40972ZM14.9933 16.7943C14.9933 16.7943 14.7516 16.7943 14.5167 16.9133C14.3009 17.0219 14.0419 17.2547 14.0419 17.7462C14.0419 17.7496 14.0401 17.7531 14.035 17.7531C14.0298 17.7531 14.0281 17.7496 14.0281 17.7462C14.0281 17.2547 13.7708 17.0219 13.5532 16.9133C13.3184 16.796 13.0801 16.7943 13.0766 16.7943C13.0766 16.7943 13.0714 16.7908 13.0714 16.7874C13.0714 16.7839 13.0732 16.7805 13.0784 16.7805C13.0801 16.7805 13.3201 16.7788 13.5549 16.6615C13.7708 16.5529 14.0298 16.3201 14.0298 15.8286C14.0298 15.8251 14.0332 15.8217 14.0367 15.8217C14.0401 15.8217 14.0436 15.8251 14.0436 15.8286C14.0436 16.3201 14.3026 16.5546 14.5184 16.6632C14.7533 16.7805 14.9916 16.7822 14.995 16.7822C14.995 16.7822 15.0002 16.7857 15.0002 16.7891C15.0002 16.7926 14.9968 16.796 14.9933 16.796V16.7943ZM15.2333 13.7765C15.2333 13.7765 14.9311 13.7782 14.6376 13.9265C14.3665 14.0628 14.0436 14.3525 14.0436 14.9681C14.0436 14.9733 14.0401 14.9767 14.035 14.9767C14.0298 14.9767 14.0263 14.9733 14.0263 14.9681C14.0263 14.3525 13.7034 14.0628 13.4323 13.9265C13.1388 13.78 12.8401 13.7765 12.8383 13.7765C12.8383 13.7765 12.8314 13.7731 12.8314 13.7679C12.8314 13.7627 12.8349 13.7593 12.8401 13.7593C12.8435 13.7593 13.1422 13.7575 13.4358 13.6092C13.7069 13.473 14.0298 13.1816 14.0298 12.5677C14.0298 12.5625 14.0332 12.5591 14.0384 12.5591C14.0436 12.5591 14.047 12.5625 14.047 12.5677C14.047 13.1833 14.37 13.473 14.6411 13.6092C14.9363 13.7558 15.2333 13.7593 15.2368 13.7593C15.2368 13.7593 15.2437 13.7644 15.2437 13.7679C15.2437 13.7731 15.2402 13.7765 15.2351 13.7765H15.2333ZM15.4319 10.1776C15.4319 10.1776 15.0814 10.1793 14.7377 10.3518C14.4218 10.5104 14.0453 10.8501 14.0453 11.5675C14.0453 11.5727 14.0401 11.5779 14.0367 11.5779C14.0315 11.5779 14.0263 11.5727 14.0263 11.5675C14.0263 10.8501 13.6499 10.5104 13.3339 10.3518C12.9903 10.1793 12.6432 10.1776 12.6398 10.1776C12.6346 10.1776 12.6328 10.1724 12.6328 10.169C12.6328 10.1655 12.638 10.1604 12.6415 10.1604C12.6449 10.1604 12.9937 10.1587 13.3356 9.98621C13.6516 9.82756 14.0281 9.48784 14.0281 8.77048C14.0281 8.7653 14.0332 8.76013 14.0384 8.76013C14.0436 8.76013 14.047 8.7653 14.047 8.77048C14.047 9.48784 14.4235 9.82756 14.7395 9.98621C15.0831 10.1587 15.4302 10.1604 15.4336 10.1604H15.4353C15.4353 10.1604 15.4423 10.1655 15.4423 10.169C15.4423 10.1742 15.4371 10.1793 15.4319 10.1793V10.1776ZM15.6322 6.40972C15.6322 6.40972 15.2299 6.41145 14.8379 6.60976C14.477 6.79082 14.0453 7.17883 14.0453 7.99793C14.0453 8.00483 14.0401 8.01 14.035 8.01C14.0298 8.01 14.0229 8.00483 14.0229 7.99793C14.0229 7.1771 13.5929 6.79082 13.2303 6.60976C12.8383 6.41317 12.4412 6.41145 12.436 6.41145H12.4343C12.4343 6.41145 12.4256 6.40628 12.4256 6.39938C12.4256 6.39248 12.4308 6.38903 12.436 6.38903C12.4412 6.38903 12.8383 6.38731 13.2303 6.189C13.5912 6.00793 14.0211 5.61993 14.0211 4.80083C14.0211 4.79565 14.0263 4.79048 14.0332 4.79048C14.0401 4.79048 14.0436 4.79565 14.0436 4.80083C14.0436 5.62166 14.4736 6.00966 14.8362 6.19072C15.2281 6.38731 15.6253 6.38903 15.6288 6.38903H15.6305C15.6305 6.38903 15.6391 6.3942 15.6391 6.39938C15.6391 6.40628 15.6339 6.41145 15.627 6.41145L15.6322 6.40972ZM10.9734 16.7943C10.9734 16.7943 10.7317 16.7943 10.4969 16.9133C10.281 17.0219 10.022 17.2547 10.022 17.7462C10.022 17.7496 10.0186 17.7531 10.0151 17.7531C10.0117 17.7531 10.0082 17.7496 10.0082 17.7462C10.0082 17.2547 9.74918 17.0219 9.53334 16.9133C9.2985 16.796 9.06021 16.7943 9.05676 16.7943C9.05676 16.7943 9.05158 16.7908 9.05158 16.7874C9.05158 16.7839 9.05503 16.7805 9.05849 16.7805C9.06021 16.7805 9.30023 16.7788 9.53507 16.6615C9.75091 16.5529 10.0099 16.3201 10.0099 15.8286C10.0099 15.8251 10.0134 15.8217 10.0168 15.8217C10.0203 15.8217 10.0237 15.8251 10.0237 15.8286C10.0237 16.3201 10.2828 16.5546 10.4986 16.6632C10.7334 16.7805 10.9717 16.7822 10.9752 16.7822C10.9752 16.7822 10.9804 16.7857 10.9804 16.7891C10.9804 16.7926 10.9769 16.796 10.9734 16.796V16.7943ZM11.2135 13.7765C11.2135 13.7765 10.9113 13.7782 10.6177 13.9265C10.3466 14.0628 10.0237 14.3525 10.0237 14.9681C10.0237 14.9733 10.0203 14.9767 10.0151 14.9767C10.0099 14.9767 10.0065 14.9733 10.0065 14.9681C10.0065 14.3525 9.68358 14.0628 9.41248 13.9265C9.11893 13.78 8.8202 13.7765 8.81848 13.7765C8.81848 13.7765 8.81156 13.7731 8.81156 13.7679C8.81156 13.7627 8.81502 13.7593 8.8202 13.7593C8.82192 13.7593 9.12065 13.7575 9.41592 13.6092C9.68702 13.473 10.0099 13.1816 10.0099 12.5677C10.0099 12.5625 10.0134 12.5591 10.0186 12.5591C10.0237 12.5591 10.0272 12.5625 10.0272 12.5677C10.0272 13.1833 10.3501 13.473 10.6212 13.6092C10.9147 13.7558 11.2135 13.7593 11.2152 13.7593H11.2169C11.2169 13.7593 11.2238 13.7644 11.2238 13.7679C11.2238 13.7731 11.2204 13.7765 11.2152 13.7765H11.2135ZM11.4138 10.1776C11.4138 10.1776 11.0615 10.1793 10.7196 10.3518C10.4036 10.5104 10.0272 10.8501 10.0272 11.5675C10.0272 11.5727 10.022 11.5779 10.0168 11.5779C10.0117 11.5779 10.0082 11.5727 10.0082 11.5675C10.0082 10.8501 9.63176 10.5104 9.31577 10.3518C8.97215 10.1793 8.62508 10.1776 8.62163 10.1776H8.6199C8.6199 10.1776 8.61127 10.1724 8.61127 10.1673C8.61127 10.1621 8.61645 10.1587 8.62163 10.1587C8.62508 10.1587 8.97388 10.1569 9.31577 9.98448C9.63176 9.82583 10.0082 9.48612 10.0082 8.76875C10.0082 8.76358 10.0134 8.7584 10.0168 8.7584C10.022 8.7584 10.0272 8.76358 10.0272 8.76875C10.0272 9.48612 10.4036 9.82583 10.7196 9.98448C11.0632 10.1569 11.4103 10.1587 11.4138 10.1587H11.4155C11.4155 10.1587 11.4241 10.1638 11.4241 10.1673C11.4241 10.1724 11.4189 10.1776 11.4138 10.1776ZM11.6123 6.40972C11.6123 6.40972 11.21 6.41145 10.818 6.60976C10.4571 6.79082 10.0272 7.17883 10.0272 7.99793C10.0272 8.00483 10.022 8.01 10.0151 8.01C10.0099 8.01 10.0047 8.00483 10.0047 7.99793C10.0047 7.1771 9.57479 6.79082 9.21217 6.60976C8.8202 6.41317 8.42305 6.41145 8.4196 6.41145H8.41787C8.41787 6.41145 8.40923 6.40628 8.40923 6.39938C8.40923 6.39248 8.41441 6.38903 8.42132 6.38903C8.42477 6.38903 8.82366 6.38731 9.21563 6.189C9.57652 6.00793 10.0065 5.61993 10.0065 4.80083C10.0065 4.79565 10.0117 4.79048 10.0168 4.79048C10.0237 4.79048 10.0289 4.79565 10.0289 4.80083C10.0289 5.62166 10.4589 6.00966 10.8215 6.19072C11.2135 6.38731 11.6106 6.38903 11.6141 6.38903H11.6158C11.6158 6.38903 11.6244 6.3942 11.6244 6.39938C11.6244 6.40628 11.6193 6.41145 11.6123 6.41145V6.40972ZM12.013 2.02621C12.013 2.02621 11.5105 2.02966 11.0201 2.27453C10.5694 2.50043 10.0306 2.98499 10.0306 4.01103C10.0306 4.01793 10.0237 4.02483 10.0168 4.02483C10.0099 4.02483 10.003 4.01793 10.003 4.01103C10.003 2.98499 9.46427 2.50043 9.01359 2.27453C8.5232 2.02794 8.02589 2.02621 8.02071 2.02621C8.01553 2.02621 7.51823 2.02966 7.02784 2.27453C6.57716 2.50043 6.03841 2.98499 6.03841 4.01103C6.03841 4.01793 6.03323 4.02483 6.0246 4.02483C6.01769 4.02483 6.01079 4.01793 6.01079 4.01103C6.01079 2.98499 5.47204 2.50043 5.02136 2.27453C4.53097 2.02794 4.03539 2.02621 4.03021 2.02621H4.02848C4.02848 2.02621 4.01641 2.01931 4.01641 2.01241C4.01641 2.00552 4.02331 1.99862 4.03021 1.99862C4.03539 1.99862 4.53269 1.99517 5.02309 1.7503C5.47377 1.5244 6.01252 1.03983 6.01252 0.0137932C6.01252 0.00689543 6.01942 0 6.02633 0C6.03496 0 6.04014 0.00689543 6.04014 0.0137932C6.04014 1.03983 6.57888 1.5244 7.02956 1.7503C7.51996 1.9969 8.01726 1.99862 8.02071 1.99862C8.02589 1.99862 8.5232 1.99517 9.01359 1.7503C9.46427 1.5244 10.003 1.03983 10.003 0.0137932C10.003 0.00689543 10.0099 0 10.0168 0C10.0255 0 10.0306 0.00689543 10.0306 0.0137932C10.0306 1.03983 10.5694 1.5244 11.0201 1.7503C11.5105 1.9969 12.0078 1.99862 12.013 1.99862H12.0147C12.0147 1.99862 12.0268 2.00552 12.0268 2.01241C12.0268 2.01931 12.0199 2.02621 12.013 2.02621ZM6.98295 16.7943C6.98295 16.7943 6.7412 16.7943 6.50637 16.9133C6.29052 17.0219 6.03151 17.2547 6.03151 17.7462C6.03151 17.7496 6.02805 17.7531 6.0246 17.7531C6.02114 17.7531 6.01769 17.7496 6.01769 17.7462C6.01769 17.2547 5.75868 17.0219 5.54284 16.9133C5.308 16.796 5.06971 16.7943 5.06626 16.7943C5.06626 16.7943 5.06108 16.7908 5.06108 16.7874C5.06108 16.7839 5.06453 16.7805 5.06799 16.7805C5.06971 16.7805 5.30973 16.7788 5.54457 16.6615C5.76041 16.5529 6.01942 16.3201 6.01942 15.8286C6.01942 15.8251 6.02115 15.8217 6.02633 15.8217C6.03151 15.8217 6.03324 15.8251 6.03324 15.8286C6.03324 16.3201 6.29225 16.5546 6.50809 16.6632C6.74293 16.7805 6.98121 16.7822 6.98467 16.7822C6.98467 16.7822 6.98985 16.7857 6.98985 16.7891C6.98985 16.7926 6.98813 16.796 6.98295 16.796V16.7943ZM7.22296 13.7765C7.22296 13.7765 6.92079 13.7782 6.62724 13.9265C6.35614 14.0628 6.03324 14.3525 6.03324 14.9681C6.03324 14.9733 6.02978 14.9767 6.0246 14.9767C6.01942 14.9767 6.01597 14.9733 6.01597 14.9681C6.01597 14.3525 5.69307 14.0628 5.42197 13.9265C5.12842 13.78 4.82969 13.7765 4.82797 13.7765C4.82797 13.7765 4.82106 13.7731 4.82106 13.7679C4.82106 13.7627 4.82451 13.7593 4.8297 13.7593C4.83142 13.7593 5.13015 13.7575 5.42542 13.6092C5.69652 13.473 6.01942 13.1816 6.01942 12.5677C6.01942 12.5625 6.02287 12.5591 6.02806 12.5591C6.03324 12.5591 6.03669 12.5625 6.03669 12.5677C6.03669 13.1833 6.35959 13.473 6.63069 13.6092C6.92423 13.7558 7.22296 13.7593 7.22469 13.7593H7.22642C7.22642 13.7593 7.23332 13.7644 7.23332 13.7679C7.23332 13.7731 7.22987 13.7765 7.22469 13.7765H7.22296ZM7.42154 10.1776C7.42154 10.1776 7.06928 10.1793 6.72738 10.3518C6.41139 10.5104 6.03496 10.8501 6.03496 11.5675C6.03496 11.5727 6.02978 11.5779 6.0246 11.5779C6.01942 11.5779 6.01597 11.5727 6.01597 11.5675C6.01597 10.8501 5.63953 10.5104 5.32354 10.3518C4.97992 10.1793 4.63285 10.1776 4.6294 10.1776C4.62422 10.1776 4.62077 10.1724 4.62077 10.169C4.62077 10.1655 4.62595 10.1604 4.63113 10.1604C4.63458 10.1604 4.98337 10.1587 5.32527 9.98621C5.64126 9.82756 6.01769 9.48784 6.01769 8.77048C6.01769 8.7653 6.02287 8.76013 6.02633 8.76013C6.03151 8.76013 6.03669 8.7653 6.03669 8.77048C6.03669 9.48784 6.41312 9.82756 6.72911 9.98621C7.07273 10.1587 7.41981 10.1604 7.42327 10.1604H7.42499C7.42499 10.1604 7.4319 10.1655 7.4319 10.169C7.4319 10.1742 7.42845 10.1793 7.42327 10.1793L7.42154 10.1776ZM7.62184 6.40972C7.62184 6.40972 7.21951 6.41145 6.82754 6.60976C6.46665 6.79082 6.03669 7.17883 6.03669 7.99793C6.03669 8.00483 6.03151 8.01 6.0246 8.01C6.01942 8.01 6.01424 8.00483 6.01424 7.99793C6.01424 7.1771 5.58429 6.79082 5.22167 6.60976C4.8297 6.41317 4.43254 6.41145 4.42909 6.41145H4.42736C4.42736 6.41145 4.41873 6.40628 4.41873 6.39938C4.41873 6.39248 4.42391 6.38903 4.43082 6.38903C4.43427 6.38903 4.83316 6.38731 5.22513 6.189C5.58602 6.00793 6.01769 5.61993 6.01769 4.80083C6.01769 4.79565 6.02287 4.79048 6.02806 4.79048C6.03496 4.79048 6.04014 4.79565 6.04014 4.80083C6.04014 5.62166 6.47011 6.00966 6.83272 6.19072C7.22469 6.38731 7.62184 6.38903 7.62702 6.38903H7.62875C7.62875 6.38903 7.63738 6.3942 7.63738 6.39938C7.63738 6.40628 7.6322 6.41145 7.62702 6.41145L7.62184 6.40972ZM2.96481 16.7943C2.96481 16.7943 2.72307 16.7943 2.48823 16.9133C2.27239 17.0219 2.01338 17.2547 2.01338 17.7462C2.01338 17.7496 2.00993 17.7531 2.00647 17.7531C2.00302 17.7531 1.99956 17.7496 1.99956 17.7462C1.99956 17.2547 1.74055 17.0219 1.52471 16.9133C1.28987 16.796 1.04986 16.7943 1.04813 16.7943H1.04641C1.04641 16.7943 1.04122 16.7908 1.04122 16.7874C1.04122 16.7839 1.04468 16.7805 1.04813 16.7805C1.04986 16.7805 1.28987 16.7788 1.52471 16.6615C1.74055 16.5529 1.99956 16.3201 1.99956 15.8286C1.99956 15.8251 2.00129 15.8217 2.00647 15.8217C2.01165 15.8217 2.01338 15.8251 2.01338 15.8286C2.01338 16.3201 2.27066 16.5546 2.48823 16.6632C2.72307 16.7805 2.96136 16.7822 2.96481 16.7822C2.96481 16.7822 2.96999 16.7857 2.96999 16.7891C2.96999 16.7926 2.96654 16.796 2.96309 16.796L2.96481 16.7943ZM3.20311 13.7765C3.20311 13.7765 2.90092 13.7782 2.60738 13.9265C2.33628 14.0628 2.01338 14.3525 2.01338 14.9681C2.01338 14.9733 2.00993 14.9767 2.00475 14.9767C1.99957 14.9767 1.99611 14.9733 1.99611 14.9681C1.99611 14.3525 1.67321 14.0628 1.40211 13.9265C1.10684 13.78 0.809839 13.7765 0.806386 13.7765C0.806386 13.7765 0.799483 13.7731 0.799483 13.7679C0.799483 13.7627 0.802934 13.7593 0.808114 13.7593C0.811568 13.7593 1.1103 13.7575 1.40384 13.6092C1.67494 13.473 1.99784 13.1816 1.99784 12.5677C1.99784 12.5625 2.00129 12.5591 2.00647 12.5591C2.01165 12.5591 2.01511 12.5625 2.01511 12.5677C2.01511 13.1833 2.33801 13.473 2.60911 13.6092C2.90438 13.7558 3.20138 13.7593 3.20483 13.7593H3.20656C3.20656 13.7593 3.21347 13.7644 3.21347 13.7679C3.21347 13.7731 3.21001 13.7765 3.20483 13.7765H3.20311ZM3.4034 10.1776C3.4034 10.1776 3.05115 10.1793 2.70753 10.3518C2.39154 10.5104 2.01511 10.8501 2.01511 11.5675C2.01511 11.5727 2.00993 11.5779 2.00475 11.5779C1.99957 11.5779 1.99611 11.5727 1.99611 11.5675C1.99611 10.8501 1.61796 10.5104 1.30369 10.3518C0.960067 10.1793 0.612988 10.1776 0.609535 10.1776C0.609535 10.1776 0.602632 10.1724 0.602632 10.169C0.602632 10.1655 0.60781 10.1604 0.611263 10.1604C0.614717 10.1604 0.963524 10.1587 1.30715 9.98621C1.62314 9.82756 1.99956 9.48784 1.99956 8.77048C1.99956 8.7653 2.00475 8.76013 2.0082 8.76013C2.01338 8.76013 2.01856 8.7653 2.01856 8.77048C2.01856 9.48784 2.39498 9.82756 2.71098 9.98621C3.0546 10.1587 3.40168 10.1604 3.40513 10.1604H3.40686C3.40686 10.1604 3.41376 10.1655 3.41376 10.169C3.41376 10.1742 3.40859 10.1793 3.40513 10.1793L3.4034 10.1776ZM3.60371 6.40972C3.60371 6.40972 3.20137 6.41145 2.8094 6.60976C2.44851 6.79082 2.01856 7.17883 2.01856 7.99793C2.01856 8.00483 2.01338 8.01 2.00647 8.01C1.99957 8.01 1.99439 8.00483 1.99439 7.99793C1.99439 7.1771 1.56442 6.79082 1.20181 6.60976C0.809836 6.41317 0.412691 6.41145 0.409237 6.41145H0.407509C0.407509 6.41145 0.398877 6.40628 0.398877 6.39938C0.398877 6.39248 0.404059 6.38903 0.410966 6.38903C0.414419 6.38903 0.811566 6.38731 1.20526 6.189C1.56615 6.00793 1.99611 5.61993 1.99611 4.80083C1.99611 4.79565 2.0013 4.79048 2.0082 4.79048C2.01511 4.79048 2.02028 4.79565 2.02028 4.80083C2.02028 5.62166 2.45024 6.00966 2.81286 6.19072C3.20483 6.38731 3.60198 6.38903 3.60716 6.38903H3.60889C3.60889 6.38903 3.61752 6.3942 3.61752 6.39938C3.61752 6.40628 3.61234 6.41145 3.60716 6.41145L3.60371 6.40972ZM4.00259 2.02621C4.00259 2.02621 3.50011 2.02966 3.00971 2.27453C2.55903 2.50043 2.02028 2.98499 2.02028 4.01103C2.02028 4.01793 2.01338 4.02483 2.00647 4.02483C1.99957 4.02483 1.99266 4.01793 1.99266 4.01103C1.99266 2.98499 1.45392 2.50043 1.00324 2.27453C0.512842 2.02794 0.0172687 2.02621 0.0120885 2.02621H0.01036C0.00345306 2.02621 0 2.01931 0 2.01241C0 2.00552 0.00689938 1.99862 0.0138064 1.99862C0.0189866 1.99862 0.516289 1.99517 1.00668 1.7503C1.45736 1.5244 1.99611 1.03983 1.99611 0.0137932C1.99611 0.00689543 2.00301 0 2.00992 0C2.01683 0 2.02374 0.00689543 2.02374 0.0137932C2.02374 1.03983 2.56248 1.5244 3.01316 1.7503C3.50355 1.9969 3.99914 1.99862 4.00432 1.99862H4.00604C4.00604 1.99862 4.01641 2.00552 4.01641 2.01241C4.01641 2.01931 4.0095 2.02621 4.00259 2.02621Z" fill="#737373"/></svg>